<?xml version="1.0" encoding="UTF-8" standalone="no"?><svg width="745.35" height="283.85" viewBox="0 0 39.44 15.02" version="1.1" xmlns="http://www.w3.org/2000/svg"><rect style="fill:#0f191e;fill-opacity:1;stroke-width:0.319458" width="39.44" height="15.02" x="0" y="0"/><rect style="fill:#f5fcfb;fill-opacity:1;stroke:#0f191e;stroke-width:0.316;stroke-opacity:1" width="26.42" height="14.35" x=".31" y=".34"/><path style="font-weight:bold;font-size:14.1111px;fill:#0f191e;stroke-width:0.316" d="M3.211 13.02h2.554c3.218 0 5.461-2.285 5.461-5.517C11.226 4.286 8.983 2 5.766 2H3.21a.71.71 0 0 0-.734.734v9.553c0 .423.31.734.734.734m.734-1.298V3.298h1.82c2.371 0 4.05 1.736 4.05 4.205s-1.679 4.22-4.05 4.22zm10.315 1.299c.41 0 .734-.325.734-.734V5.4l3.373 6.759c.14.296.366.437.677.437.282 0 .48-.127.635-.367l3.415-6.956v7.013c0 .41.324.734.734.734a.74.74 0 0 0 .733-.734V2.734A.72.72 0 0 0 23.828 2c-.269 0-.494.127-.65.395L19.1 10.791l-4.19-8.396c-.156-.268-.368-.395-.65-.395a.72.72 0 0 0-.734.734v9.553c0 .41.325.734.734.734"/><path style="font-weight:bold;font-size:14.1111px;fill:#f5fcfb;stroke-width:0.316" d="M29.96 13.02h6.378c.424 0 .72-.282.72-.69 0-.396-.296-.664-.72-.664h-5.644V8.138h4.05c.423 0 .72-.282.72-.677s-.297-.677-.72-.677h-4.05v-3.43h5.644c.424 0 .72-.268.72-.663 0-.409-.296-.691-.72-.691H29.96a.71.71 0 0 0-.734.734v9.553c0 .423.31.734.734.734"/></svg>
